<svg width="33" height="59" viewBox="0 0 33 59" fill="none" xmlns="http://www.w3.org/2000/svg">
<path d="M11.2895 58.6354C13.1655 58.6354 14.6864 57.1924 14.6864 55.4125C14.6864 53.6325 13.1655 52.1895 11.2895 52.1895C9.41351 52.1895 7.8927 53.6325 7.8927 55.4125C7.8927 57.1924 9.41351 58.6354 11.2895 58.6354Z" fill="#EE24FF"/>
<path d="M17.7157 0.0951346C13.5248 -0.353396 9.31779 0.79603 6.0201 3.29055C2.72241 5.78507 0.604201 9.42034 0.131464 13.3967C-0.852962 21.6769 3.74475 39.6577 12.1273 47.101C16.0742 32.8403 29.905 24.3816 31.7351 16.779C33.6905 8.65546 26.4428 1.02916 17.7157 0.0951346Z" fill="#EE24FF"/>
<path d="M16.0789 18.0308C18.9431 18.0308 21.265 15.8278 21.265 13.1102C21.265 10.3926 18.9431 8.18954 16.0789 8.18954C13.2146 8.18954 10.8927 10.3926 10.8927 13.1102C10.8927 15.8278 13.2146 18.0308 16.0789 18.0308Z" fill="white"/>
</svg>
